<?xml version="1.0"?>
<svg xmlns="http://www.w3.org/2000/svg" width="16" height="16" viewBox="0 0 16 16">
  <!-- Clock base -->
  <path fill="currentColor" d="M8 3.5a.5.5 0 0 0-1 0V9a.5.5 0 0 0 .252.434l3.5 2a.5.5 0 0 0 .496-.868L8 8.71z"/>
  <path fill="currentColor" d="M8 16A8 8 0 1 0 8 0a8 8 0 0 0 0 16m7-8A7 7 0 1 1 1 8a7 7 0 0 1 14 0"/>
  
  <!-- Pencil (edit) icon in bottom-right -->
  <path fill="green" d="M12.854 10.146a.5.5 0 0 0-.708 0L10 12.293V13h.707l2.146-2.146a.5.5 0 0 0 0-.708z"/>
  <path fill="green" d="M9.5 13.5V12.793l.646-.647.707.707-.646.647H9.5z"/>
</svg>
