<?xml version="1.0"?>
<svg xmlns="http://www.w3.org/2000/svg" width="16" height="16" viewBox="0 0 16 16">
  <!-- Clock base -->
  <path fill="currentColor" d="M8 3.5a.5.5 0 0 0-1 0V9a.5.5 0 0 0 .252.434l3.5 2a.5.5 0 0 0 .496-.868L8 8.71z"/>
  <path fill="currentColor" d="M8 16A8 8 0 1 0 8 0a8 8 0 0 0 0 16m7-8A7 7 0 1 1 1 8a7 7 0 0 1 14 0"/>
  <!-- X badge (red) -->
  <path fill="red" d="M12.146 12.146a.5.5 0 0 1 .708 0L14 13.293l1.146-1.147a.5.5 0 0 1 .708.708L14.707 14l1.147 1.146a.5.5 0 0 1-.708.708L14 14.707l-1.146 1.147a.5.5 0 0 1-.708-.708L13.293 14l-1.147-1.146a.5.5 0 0 1 0-.708"/>
</svg>
