<?xml version="1.0" encoding="utf-8"?>
<svg xmlns="http://www.w3.org/2000/svg" version="1.0" width="1207px" height="419px" viewBox="0 0 1207 419" preserveAspectRatio="xMidYMid meet">
 <g fill="#000000">
  <path d="M532 409 c-151 -7 -284 -31.6 -379.5 -70.3 -16.6 -6.7 -40.8 -17.7 -40.2 -18.4 0.2 -0.1 3.7 0.8 7.8 2.3 33.1 11.3 94.3 25.9 143.9 34.3 87.9 14.9 172.3 21.5 275 21.5 66.9 0 108.9 -1.9 167.5 -7.4 215.4 -20.4 378.8 -80.1 414 -151.4 5.4 -11.1 7.5 -19.4 7.5 -30.7 0 -21.5 -10.2 -41.5 -31.4 -61.6 -66.8 -63.1 -234.2 -110.7 -438.1 -124.6 -3.7 -0.3 -3.1 -0.4 2.5 -0.5 4.1 -0.1 16.1 0.3 26.5 0.8 77.8 4.2 144.8 12.3 211 25.5 163 32.6 272.4 90.5 292.4 155 13.2 42.3 -11 83.4 -71.6 121.8 -13.7 8.6 -48.2 25.7 -68.2 33.7 -92.6 37 -212.1 60 -359.1 69.1 -22.5 1.3 -135.8 2 -160 0.9z"/>
  <path d="M361 316.3 c-3 -5.9 -5.6 -11 -5.8 -11.4 -0.1 -0.3 3.8 -2 8.7 -3.8 10.3 -3.7 15.8 -7.3 20.2 -13.4 3.4 -4.6 9.9 -17.4 9.9 -19.4 0 -0.9 -1.5 -1.3 -4.4 -1.3 l-4.4 0 -21.9 -65.2 c-12 -35.9 -21.8 -66 -21.8 -66.8 0 -1.2 3 -1.9 14 -3.2 7.7 -0.9 15.6 -1.7 17.6 -1.7 l3.6 -0.1 11.8 39.8 c6.5 21.8 13.6 46 15.6 53.7 2.1 7.7 3.8 13.7 3.8 13.3 0.1 -0.4 1 -5.4 2.1 -11.2 2.3 -12 6.3 -25.7 18.8 -65.1 l8.9 -28 18.7 -0.3 18.6 -0.2 -1.1 2.7 c-0.6 1.6 -12.1 33.6 -25.6 71.2 -13.4 37.7 -25.8 71.9 -27.5 76 -7.2 18.4 -14.9 29 -25.6 35.5 -6 3.6 -18.1 8.1 -24.7 9.1 l-4 0.6 -5.5 -10.8z"/>
  <path d="M301.4 270.6 c-4.9 -3.3 -10.8 -9.2 -11.6 -11.7 -0.3 -0.8 -2.3 0.3 -5.9 3.2 -8.8 7.2 -14.5 9.2 -27.9 9.7 -13.3 0.5 -20 -0.6 -28.6 -4.7 -17.5 -8.4 -25 -29.2 -18.8 -52.1 5.5 -20.2 26.1 -30.9 60.1 -31.4 l11.3 -0.1 0 -7 c0 -13.1 -2.9 -17.8 -11.7 -19.1 -9.2 -1.4 -21.9 2.2 -35.7 10.1 -4.4 2.5 -8.1 4.5 -8.2 4.5 -0.1 0 -3.5 -5.5 -7.5 -12.2 -8.3 -14 -8.7 -12.3 4.4 -18.9 37.6 -19.1 77.6 -15.8 89.2 7.2 4.1 8 4.7 15.6 3.9 50.4 -0.8 38.9 -0.5 41 6.8 49 l5 5.5 -5.7 6.8 c-9 10.5 -12.4 14.2 -13.3 14.2 -0.4 0 -3 -1.5 -5.8 -3.4z m-30 -27 c7.4 -4.3 7.4 -4.4 7.8 -21 l0.3 -14.8 -10.7 0.4 c-17.2 0.7 -23.4 5.2 -24.5 17.8 -0.9 9.9 3.8 18.3 11.2 20.3 3.9 1.1 11.7 -0.3 15.9 -2.7z"/>
  <path d="M108.7 208.8 c-0.3 -51.7 -0.6 -59.1 -2.1 -65.1 -1 -3.8 -1.6 -7 -1.4 -7.2 0.1 -0.2 7.2 -2.1 15.6 -4.3 l15.3 -4.1 2 4.7 c1.1 2.6 2.3 6.8 2.6 9.5 0.3 2.6 0.7 4.7 0.8 4.7 0.2 0 3.1 -2.8 6.7 -6.2 8.1 -8 15.1 -11.8 22.8 -12.5 6.9 -0.7 15 1.2 15 3.4 0 1.9 -8 27.6 -8.9 28.5 -0.4 0.4 -3.1 0.3 -6.1 -0.4 -7.5 -1.5 -15 0.7 -21.3 6.3 l-4.7 4.1 0 48.4 0 48.4 -17.9 0 -18 0 -0.4 -58.2z"/>
  <path d="M479.4 265.3 c0.3 -1 6.7 -30.6 14.1 -65.8 7.5 -35.2 13.9 -65 14.2 -66.2 0.5 -2.2 0.9 -2.3 11.7 -2.3 l11.1 0 16.3 42.3 c8.9 23.2 18 47.4 20.1 53.7 2.1 6.3 4.1 10.8 4.4 10 0.3 -0.8 1.3 -7.1 2.2 -14 1 -6.9 5.3 -30.2 9.6 -51.8 4.4 -21.6 7.9 -39.5 7.9 -39.7 0 -0.3 4.5 -0.5 10.1 -0.5 10 0 10.1 0 9.6 2.3 -0.3 1.2 -6.7 31 -14.2 66.2 -7.4 35.2 -13.8 64.8 -14.1 65.8 -0.5 1.6 -1.7 1.7 -10.6 1.5 l-10.1 -0.3 -14.4 -36.5 c-7.9 -20.1 -17 -44.3 -20.2 -53.8 -3.2 -9.5 -6.1 -17.5 -6.3 -17.7 -0.2 -0.3 -1.2 4.6 -2.2 10.8 -1.5 9.4 -16.5 88.3 -18.1 95.5 -0.5 2.1 -1 2.2 -11.1 2.2 -9.6 0 -10.5 -0.2 -10 -1.7z"/>
  <path d="M621 265.8 c0 -1.4 28.1 -134.1 28.5 -134.6 0.1 -0.1 19.1 -0.1 42.2 0 l42.1 0.3 -3.2 8 -3.2 8 -30.7 0.3 -30.7 0.2 -0.5 2.3 c-1.3 5.5 -7.5 35.3 -7.5 35.9 0 0.5 11.5 0.8 25.6 0.8 l25.6 0 -0.5 2.3 c-0.3 1.2 -1.1 5 -1.8 8.5 l-1.2 6.2 -25.6 0 -25.7 0 -4.4 20.8 c-2.4 11.4 -4.5 21.7 -4.8 23 l-0.4 2.2 33.2 0 33.2 0 -0.6 2.3 c-0.3 1.2 -1.1 5 -1.8 8.5 l-1.1 6.2 -43.4 0 c-34 0 -43.3 -0.3 -43.3 -1.2z"/>
  <path d="M776 266.2 c0 -0.7 22.8 -108.6 24.5 -115.9 l0.5 -2.3 -20.3 0 -20.4 0 1.4 -6.2 c0.7 -3.5 1.6 -7.3 1.8 -8.5 l0.5 -2.3 52 0 51.9 0 -2.8 8.3 -2.8 8.2 -20.6 0.3 -20.6 0.2 -1 3.8 c-0.5 2 -6.2 28.8 -12.8 59.5 l-11.8 55.7 -9.7 0 c-5.4 0 -9.8 -0.4 -9.8 -0.8z"/>
  <path d="M31.7 234 c-9.7 -2.5 -18.3 -10.1 -21.3 -19.2 -4.7 -14.3 3.5 -31.5 17.4 -36.2 5.4 -1.9 13.9 -2.1 19.2 -0.5 5.9 1.8 13 7.8 16.4 13.9 2.8 4.9 3.1 6.4 3.1 13.5 0 6.7 -0.5 8.8 -2.7 13.1 -6.1 11.6 -20.1 18.3 -32.1 15.4z"/>
  <path d="M639.3 1.3 c1.5 -0.2 3.9 -0.2 5.5 0 1.5 0.2 0.2 0.4 -2.8 0.4 -3 0 -4.3 -0.2 -2.7 -0.4z"/>
 </g>
</svg>
