<?xml version="1.0"?>
<svg xmlns="http://www.w3.org/2000/svg" width="477" height="618" viewBox="0 0 477 618" fill="none">
<path d="M224.181 2.39453C211.445 34.1059 198.144 108.695 238.544 183.636C269.789 241.594 332.289 241.594 347.082 183.636C352.697 161.637 345.142 132.902 335.098 107.093L424.747 191.717C474.847 239.009 477.1 317.149 429.809 367.249L325.877 477.353L240.092 568.232L180.088 511.592L39.1086 378.516C-10.9916 331.224 -13.2455 253.084 34.0461 202.983L223.763 2L224.181 2.39453Z" fill="url(#paint0_linear_35878_90348)"/>
<path opacity="0.76" d="M389.496 408.518C380.87 393.574 367.668 378.416 349.023 363.322C261.454 438.357 144.118 333.472 150.354 202.158C89.5182 283.904 60.9766 346.296 57.3896 395.723L239.89 568.223L389.496 408.518Z" fill="url(#paint1_linear_35878_90348)"/>
<defs>
<linearGradient id="paint0_linear_35878_90348" x1="353.481" y1="-19.0749" x2="166.319" y2="373.235" gradientUnits="userSpaceOnUse">
<stop stop-color="#CADEFB"/>
<stop offset="1" stop-color="#710DFE"/>
</linearGradient>
<linearGradient id="paint1_linear_35878_90348" x1="16.965" y1="171.434" x2="326.021" y2="502.964" gradientUnits="userSpaceOnUse">
<stop stop-color="#E9F2FF"/>
<stop offset="0.456712" stop-color="#CBDEFB"/>
<stop offset="1" stop-color="#710DFE" stop-opacity="0"/>
</linearGradient>
</defs>
</svg>
