<?xml version="1.0"?>
<svg xmlns="http://www.w3.org/2000/svg" width="128" height="160" viewBox="0 0 128 160" fill="none">
  <path d="M32.764 68.4503V125.39L0.333984 143.21V52.2403L95.204 0.260254V34.2203L32.764 68.4503ZM95.204 34.1603V90.9903L32.764 125.28V159.31L127.634 107.14V16.3403L95.204 34.1603ZM75.564 81.7303C72.274 81.7303 70.374 79.0803 70.374 74.4503C70.374 69.8203 72.274 67.1403 75.564 67.1403C78.854 67.1403 80.754 69.8103 80.754 74.4503C80.754 79.0903 78.804 81.7303 75.564 81.7303ZM52.514 92.4703C49.224 92.4703 47.324 89.8203 47.324 85.1903C47.324 80.5603 49.224 77.8803 52.514 77.8803C55.804 77.8803 57.704 80.5503 57.704 85.1903C57.704 89.8303 55.764 92.4703 52.474 92.4703H52.524H52.514Z" fill="#040F4B"/>
</svg>
