<?xml version="1.0"?>
<svg xmlns="http://www.w3.org/2000/svg" width="128" height="128" viewBox="0 0 128 128" fill="none">
<g clip-path="url(#clip0_10639_9462)">
<path d="M0 19.3444C0 2.99637 21.3761 -5.95329 35.4978 4.48231L66.1971 27.1528L92.1052 12.471C105.798 5.00424 127.74 10.3596 128 30.7706L128 105.991C128 122.339 107.251 130.862 93.1294 120.426L61.8706 97.2605L35.9322 111.945C22.1098 119.483 0.0215869 113.7 0.0215869 93.8355C0.0215963 69.9912 0 79.1464 0 19.3444Z" fill="url(#paint0_linear_10639_9462)"/>
<path d="M0 19.3444C0 2.99637 21.3761 -5.95329 35.4978 4.48231L66.1971 27.1528L92.1052 12.471C105.798 5.00424 127.74 10.3596 128 30.7706L128 105.991C128 122.339 107.251 130.862 93.1294 120.426L61.8706 97.2605L35.9322 111.945C22.1098 119.483 0.0215869 113.7 0.0215869 93.8355C0.0215963 69.9912 0 79.1464 0 19.3444Z" fill="url(#paint1_radial_10639_9462)"/>
<path d="M0 19.3444C0 2.99637 21.3761 -5.95329 35.4978 4.48231L66.1971 27.1528L92.1052 12.471C105.798 5.00424 127.74 10.3596 128 30.7706L128 105.991C128 122.339 107.251 130.862 93.1294 120.426L61.8706 97.2605L35.9322 111.945C22.1098 119.483 0.0215869 113.7 0.0215869 93.8355C0.0215963 69.9912 0 79.1464 0 19.3444Z" fill="url(#paint2_radial_10639_9462)"/>
<path d="M35.4978 4.48231C21.3761 -5.95329 0 2.99637 0 19.3444V92.9091C0 91.1205 0.911211 87.56 0.911211 87.56C5.12329 73.792 23.0283 68.6298 35.4158 77.703L93.1294 120.426C107.251 130.862 128 122.339 128 105.991V30.7706C128 44.7361 109.746 58.7552 92.5022 46.6081L35.4978 4.48231Z" fill="url(#paint3_radial_10639_9462)"/>
<path d="M35.4978 4.48231C21.3761 -5.95329 0 2.99637 0 19.3444V92.9091C0 91.1205 0.911211 87.56 0.911211 87.56C5.12329 73.792 23.0283 68.6298 35.4158 77.703L93.1294 120.426C107.251 130.862 128 122.339 128 105.991V30.7706C128 44.7361 109.746 58.7552 92.5022 46.6081L35.4978 4.48231Z" fill="url(#paint4_radial_10639_9462)" fill-opacity="0.25"/>
<path d="M35.4978 4.48231C21.3761 -5.95329 0 2.99637 0 19.3444V92.9091C0 91.1205 0.911211 87.56 0.911211 87.56C5.12329 73.792 23.0283 68.6298 35.4158 77.703L93.1294 120.426C107.251 130.862 128 122.339 128 105.991V30.7706C128 44.7361 109.746 58.7552 92.5022 46.6081L35.4978 4.48231Z" fill="url(#paint5_radial_10639_9462)" fill-opacity="0.55"/>
<path d="M35.4978 46.1729C21.3761 35.7373 0 44.687 0 61.035L4.25378e-06 19.3444C5.72415e-06 2.99637 21.3761 -5.95329 35.4978 4.48231C54.4995 18.5241 73.5006 32.5663 92.5022 46.6081C109.746 58.7552 128 44.7361 128 30.7706V73.4366C128 89.7846 106.624 98.7343 92.5022 88.2987C73.5004 74.2569 54.4995 60.2147 35.4978 46.1729Z" fill="url(#paint6_linear_10639_9462)"/>
<path d="M35.4978 46.1729C21.3761 35.7373 0 44.687 0 61.035L4.25378e-06 19.3444C5.72415e-06 2.99637 21.3761 -5.95329 35.4978 4.48231C54.4995 18.5241 73.5006 32.5663 92.5022 46.6081C109.746 58.7552 128 44.7361 128 30.7706V73.4366C128 89.7846 106.624 98.7343 92.5022 88.2987C73.5004 74.2569 54.4995 60.2147 35.4978 46.1729Z" fill="url(#paint7_radial_10639_9462)" fill-opacity="0.36"/>
</g>
<defs>
<linearGradient id="paint0_linear_10639_9462" x1="54.6612" y1="125" x2="100.343" y2="27.2523" gradientUnits="userSpaceOnUse">
<stop offset="0.02" stop-color="#1169DA"/>
<stop offset="0.434784" stop-color="#0151BD"/>
<stop offset="0.614436" stop-color="#014DB7"/>
<stop offset="1" stop-color="#126AD9"/>
</linearGradient>
<radialGradient id="paint1_radial_10639_9462" cx="0" cy="0" r="1" gradientUnits="userSpaceOnUse" gradientTransform="translate(114.551 -17.3136) rotate(110.224) scale(93.5192 70.0534)">
<stop offset="0.422966" stop-color="#004AFF" stop-opacity="0.1"/>
<stop offset="0.728672" stop-color="#014DB9"/>
<stop offset="0.836135" stop-color="#014DB9" stop-opacity="0.9"/>
<stop offset="0.955" stop-color="#014DB9" stop-opacity="0"/>
</radialGradient>
<radialGradient id="paint2_radial_10639_9462" cx="0" cy="0" r="1" gradientUnits="userSpaceOnUse" gradientTransform="translate(17.087 121.18) rotate(-73.6432) scale(74.4538 90.694)">
<stop offset="0.0908532" stop-color="#004AFF" stop-opacity="0.1"/>
<stop offset="0.56036" stop-color="#014DB9"/>
<stop offset="0.749466" stop-color="#014DB9" stop-opacity="0.99"/>
<stop offset="1" stop-color="#014DB9" stop-opacity="0"/>
</radialGradient>
<radialGradient id="paint3_radial_10639_9462" cx="0" cy="0" r="1" gradientUnits="userSpaceOnUse" gradientTransform="translate(140.403 -2.65866e-05) rotate(134.068) scale(180.466 139)">
<stop offset="0.249322" stop-color="#23C0FE"/>
<stop offset="0.717207" stop-color="#23C0FE"/>
<stop offset="0.995168" stop-color="#1C91FF"/>
</radialGradient>
<radialGradient id="paint4_radial_10639_9462" cx="0" cy="0" r="1" gradientUnits="userSpaceOnUse" gradientTransform="translate(38.1681 10.1469) rotate(45.9092) scale(129.106 30.7133)">
<stop offset="0.165" stop-color="#096DD6" stop-opacity="0"/>
<stop offset="0.484233" stop-color="#096DD6"/>
<stop offset="0.900505" stop-color="#0876DE" stop-opacity="0.813868"/>
<stop offset="1" stop-color="#029AFF" stop-opacity="0"/>
</radialGradient>
<radialGradient id="paint5_radial_10639_9462" cx="0" cy="0" r="1" gradientUnits="userSpaceOnUse" gradientTransform="translate(123.229 76.6788) rotate(91.6099) scale(20.7357 18.6738)">
<stop stop-color="#0068B3"/>
<stop offset="0.93" stop-color="#006CB8" stop-opacity="0"/>
</radialGradient>
<linearGradient id="paint6_linear_10639_9462" x1="36.4911" y1="29.4789" x2="58.042" y2="121.055" gradientUnits="userSpaceOnUse">
<stop stop-color="#92EEFE"/>
<stop offset="0.564559" stop-color="#35DDFF"/>
<stop offset="1" stop-color="#08B1F9"/>
</linearGradient>
<radialGradient id="paint7_radial_10639_9462" cx="0" cy="0" r="1" gradientUnits="userSpaceOnUse" gradientTransform="translate(21.4706 2.91157e-06) rotate(69.461) scale(31.8924 25.7596)">
<stop stop-color="#CCF9FF" stop-opacity="0.93"/>
<stop offset="1" stop-color="#35DDFF"/>
</radialGradient>
<clipPath id="clip0_10639_9462">
<rect width="128" height="128" fill="white"/>
</clipPath>
</defs>
</svg>
