<?xml version="1.0"?>
<svg xmlns="http://www.w3.org/2000/svg" width="112" height="76" fill="#000" viewBox="0 0 112 76">
<path d="M111.261 37.1793C111.261 37.1793 100.563 54.2738 83.9005 64.9252C67.2376 75.5765 54.3974 75.222 54.3974 75.222V61.7652C54.3974 61.7652 76.8099 58.3432 76.8099 37.1793C76.8099 16.0154 55.4764 15.815 55.4764 15.815L55.2298 1.6954C55.2298 1.6954 67.2222 -0.462614 85.6115 10.3275C96.5532 16.6411 105.455 25.96 111.261 37.1793Z"/>
<path d="M52.1163 72.5554V69.0872L49.1105 67.3453L46.1201 69.0872V72.5554L49.1105 74.2818L52.1163 72.5554Z"/>
<path d="M39.1681 72.1546V69.4725L36.8406 68.1315L34.513 69.4725V72.1546L36.8406 73.4957L39.1681 72.1546Z"/>
<path d="M49.1104 63.5687V56.478L42.9755 52.9327L36.8406 56.478V63.5687L42.9755 67.114L49.1104 63.5687Z"/>
<path d="M33.8655 61.858V58.1894L30.6902 56.3551L27.5148 58.1894V61.858L30.6902 63.6923L33.8655 61.858Z"/>
<path d="M28.6862 51.6225V46.8595L24.5551 44.4703L20.424 46.8595V51.6225L24.5551 54.0118L28.6862 51.6225Z"/>
<path d="M15.4762 51.0833V47.3993L12.2701 45.5496L9.07928 47.3993V51.0833L12.2701 52.9331L15.4762 51.0833Z"/>
<path d="M12.2698 42.004V34.9133L6.13492 31.368L0 34.9133V42.004L6.13492 45.5493L12.2698 42.004Z"/>
<path d="M33.8655 40.2933V36.6247L30.6902 34.7904L27.5148 36.6247V40.2933L30.6902 42.1276L33.8655 40.2933Z"/>
<path d="M15.8308 29.2409V25.5877L12.6554 23.7534L9.48007 25.5877V29.2409L12.6554 31.0907L15.8308 29.2409Z"/>
<path d="M29.3337 30.4278V24.9094L24.5552 22.1503L19.7768 24.9094V30.4278L24.5552 33.187L29.3337 30.4278Z"/>
<path d="M33.8964 18.7285V15.0291L30.6902 13.1794L27.4994 15.0291V18.7285L30.6902 20.5783L33.8964 18.7285Z"/>
<path d="M45.9814 18.3894V14.9212L42.9756 13.1794L39.9698 14.9212V18.3894L42.9756 20.1313L45.9814 18.3894Z"/>
<path d="M52.1161 8.32386V3.8691L48.2625 1.63401L44.4089 3.8691V8.32386L48.2625 10.5435L52.1161 8.32386Z"/>
<path d="M66.0198 31.954L55.6768 26.1736L45.5187 32.2314L45.6574 44.0543L56.0005 49.8347L66.1586 43.7768L66.0198 31.954Z"/>
</svg>
